<?xml version="1.0" encoding="utf-8"?>
<!-- Generator: Adobe Illustrator 16.0.0, SVG Export Plug-In . SVG Version: 6.00 Build 0)  -->
<!DOCTYPE svg PUBLIC "-//W3C//DTD SVG 1.1//EN" "http://www.w3.org/Graphics/SVG/1.1/DTD/svg11.dtd">
<svg version="1.1" id="图层_1" xmlns="http://www.w3.org/2000/svg" xmlns:xlink="http://www.w3.org/1999/xlink" x="0px" y="0px"
	 width="100px" height="100px" viewBox="0 0 100 100" enable-background="new 0 0 100 100" xml:space="preserve">
<circle fill="#409EFF" cx="50" cy="50" r="50"/>
<g>
	<path fill="#FFFFFF" d="M24.844,50.268v16.479h-9.611V33.617h9.611v13.324h7.84V33.617h9.611v33.129h-9.611V50.268H24.844z"/>
	<path fill="#FFFFFF" d="M70.838,41.651v25.095h-8.861V62.84c-2.037,2.912-4.656,4.369-7.863,4.369
		c-4.318,0-6.479-2.105-6.479-6.313V42.281c2.978-0.128,5.933-0.339,8.858-0.63v19.026c0,1.65,0.502,2.479,1.506,2.479
		c2.652,0,3.979-2.85,3.979-8.545v-12.33C64.938,42.153,67.893,41.942,70.838,41.651z"/>
	<path fill="#FFFFFF" d="M75.908,66.746V42.307c2.768,0,5.721-0.22,8.859-0.655v25.095H75.908z M80.4,32.792
		c2.75,0,4.125,1.068,4.125,3.204c0,2.135-1.375,3.203-4.125,3.203c-2.752,0-4.127-1.068-4.127-3.203
		C76.273,33.86,77.648,32.792,80.4,32.792z"/>
</g>
</svg>
